<svg data-v-423bf9ae="" xmlns="http://www.w3.org/2000/svg" viewBox="0 0 672.9979100340411 164" class="iconAbove"><!----><!----><!----><g data-v-423bf9ae="" id="66893f1a-9341-4ded-b0ed-52d0499d035c" fill="#ffffff" transform="matrix(5.592433171222897,0,0,5.592433171222897,-3.6864749826943353,102.71634044942746)"><path d="M8.33 9.79L8.33 9.79C7.59 10.21 6.75 10.40 5.91 10.40C3.64 10.40 2.13 9.20 1.43 7.63C0.85 6.36 0.84 4.83 1.36 3.53C2.03 1.92 3.51 0.66 5.92 0.59C6.71 0.56 7.46 0.69 8.20 0.92C8.29 0.95 8.37 0.91 8.41 0.83C8.44 0.74 8.39 0.64 8.30 0.62C7.52 0.36 6.73 0.22 5.91 0.25C3.36 0.34 1.76 1.69 1.06 3.40C0.50 4.79 0.53 6.41 1.13 7.76C1.88 9.44 3.49 10.74 5.91 10.74C6.85 10.74 7.76 10.49 8.58 10.02C8.62 9.98 8.67 9.93 8.65 9.87L8.65 5.49C8.65 5.40 8.58 5.33 8.50 5.33C8.41 5.33 8.33 5.40 8.33 5.49ZM8.06 2.65L8.06 2.65C7.39 2.34 6.64 2.25 5.91 2.28C4.40 2.34 3.43 3.16 3.01 4.21C2.69 5.05 2.70 6.05 3.07 6.87C3.50 7.91 4.47 8.71 5.91 8.71C6.10 8.71 6.30 8.69 6.48 8.65C6.57 8.65 6.62 8.58 6.62 8.50L6.62 5.49C6.62 5.40 6.55 5.33 6.47 5.33C6.37 5.33 6.30 5.40 6.30 5.49L6.30 8.34C6.16 8.37 6.03 8.37 5.91 8.37C4.61 8.37 3.77 7.67 3.36 6.75C3.02 6.01 3.01 5.10 3.32 4.34C3.70 3.40 4.55 2.66 5.92 2.62C6.61 2.58 7.29 2.66 7.94 2.94C8.02 2.98 8.12 2.94 8.15 2.86C8.19 2.79 8.15 2.69 8.06 2.65ZM21.04 3.86L21.04 3.86C20.33 1.64 18.20 0.13 15.86 0.13C12.70 0.13 10.51 2.39 10.51 5.47C10.51 8.57 12.70 10.84 15.86 10.84C18.20 10.84 20.33 9.34 21.04 7.08C21.07 7 21.01 6.90 20.93 6.87C20.83 6.85 20.75 6.89 20.72 6.99C20.05 9.10 18.07 10.50 15.86 10.50C12.89 10.50 10.84 8.39 10.84 5.47C10.84 2.56 12.89 0.46 15.86 0.46C18.07 0.46 20.05 1.86 20.72 3.96C20.75 4.06 20.83 4.10 20.93 4.07C21.01 4.06 21.07 3.95 21.04 3.86ZM13.06 7.11L13.06 7.11C13.64 8.12 14.70 8.76 15.86 8.76C17.67 8.76 19.10 7.27 19.10 5.47C19.10 3.70 17.67 2.20 15.86 2.20C14.70 2.20 13.64 2.83 13.06 3.84C13.02 3.92 13.05 4.02 13.12 4.07C13.20 4.12 13.31 4.09 13.36 4.00C13.86 3.09 14.81 2.52 15.86 2.52C17.49 2.52 18.76 3.86 18.76 5.47C18.76 7.08 17.49 8.43 15.86 8.43C14.81 8.43 13.86 7.85 13.36 6.94C13.31 6.87 13.20 6.85 13.12 6.89C13.05 6.93 13.02 7.04 13.06 7.11ZM28.91 10.33L28.91 10.33L23.25 10.33L23.25 0.49C23.25 0.41 23.18 0.34 23.09 0.34C23.00 0.34 22.93 0.41 22.93 0.49L22.93 10.50C22.93 10.58 23.00 10.65 23.09 10.65L28.91 10.65C29.01 10.65 29.08 10.58 29.08 10.50C29.08 10.40 29.01 10.33 28.91 10.33ZM24.92 0.49L24.92 0.49L24.92 8.50C24.92 8.58 25.00 8.65 25.09 8.65L28.91 8.65C29.01 8.65 29.08 8.58 29.08 8.50C29.08 8.40 29.01 8.33 28.91 8.33L25.26 8.33L25.26 0.49C25.26 0.41 25.17 0.34 25.09 0.34C25.00 0.34 24.92 0.41 24.92 0.49ZM33.95 0.34L33.95 0.34L30.95 0.34C30.87 0.34 30.80 0.41 30.80 0.49L30.80 10.50C30.80 10.58 30.87 10.65 30.95 10.65C31.05 10.65 31.12 10.58 31.12 10.50L31.12 0.66L33.95 0.66C36.27 0.66 37.76 1.90 38.40 3.51C38.91 4.76 38.91 6.23 38.40 7.48C37.76 9.09 36.27 10.33 33.95 10.33L32.94 10.33C32.84 10.33 32.77 10.40 32.77 10.50C32.77 10.58 32.84 10.65 32.94 10.65L33.95 10.65C36.43 10.65 38.01 9.31 38.70 7.60C39.24 6.27 39.24 4.72 38.70 3.39C38.01 1.67 36.43 0.34 33.95 0.34ZM33.12 6.50L33.12 6.50L33.12 2.65L33.95 2.65C35.27 2.65 36.11 3.39 36.48 4.33C36.76 5.05 36.76 5.92 36.48 6.66C36.11 7.60 35.27 8.33 33.95 8.33L32.96 8.33C32.87 8.33 32.79 8.41 32.79 8.50C32.79 8.58 32.87 8.67 32.96 8.67L33.95 8.67C35.42 8.67 36.37 7.84 36.78 6.78C37.10 5.96 37.10 5.03 36.78 4.20C36.37 3.15 35.42 2.32 33.95 2.32L32.96 2.32C32.87 2.32 32.79 2.39 32.79 2.49L32.79 6.50C32.79 6.58 32.87 6.65 32.96 6.65C33.04 6.65 33.12 6.58 33.12 6.50ZM45.40 6.33L45.40 6.33L43.16 6.33C43.06 6.33 42.99 6.40 42.99 6.50L42.99 8.50C42.99 8.58 43.06 8.65 43.16 8.65L46.34 8.65C46.42 8.65 46.49 8.58 46.49 8.50C46.49 8.40 46.42 8.33 46.34 8.33L43.32 8.33L43.32 6.65L45.40 6.65C45.50 6.65 45.57 6.58 45.57 6.50C45.57 6.40 45.50 6.33 45.40 6.33ZM46.34 2.34L46.34 2.34L43.16 2.34C43.06 2.34 42.99 2.41 42.99 2.49L42.99 4.49C42.99 4.58 43.06 4.66 43.16 4.66L45.40 4.66C45.50 4.66 45.57 4.58 45.57 4.49C45.57 4.41 45.50 4.33 45.40 4.33L43.32 4.33L43.32 2.66L46.34 2.66C46.42 2.66 46.49 2.59 46.49 2.49C46.49 2.41 46.42 2.34 46.34 2.34ZM46.34 10.33L46.34 10.33L41.31 10.33L41.31 0.66L46.34 0.66C46.42 0.66 46.49 0.59 46.49 0.49C46.49 0.41 46.42 0.34 46.34 0.34L41.16 0.34C41.06 0.34 40.99 0.41 40.99 0.49L40.99 10.50C40.99 10.58 41.06 10.65 41.16 10.65L46.34 10.65C46.42 10.65 46.49 10.58 46.49 10.50C46.49 10.40 46.42 10.33 46.34 10.33ZM56.85 10.50L56.85 10.50L56.85 0.50C56.85 0.28 56.52 0.28 56.52 0.50L56.52 10.50C56.52 10.71 56.85 10.71 56.85 10.50ZM48.69 10.50L48.69 10.50L48.69 0.50C48.69 0.28 48.37 0.28 48.37 0.50L48.37 10.50C48.37 10.71 48.69 10.71 48.69 10.50ZM50.22 0.59L50.22 0.59L54.56 6.82C54.64 6.96 54.87 6.87 54.87 6.72L54.87 0.50C54.87 0.28 54.53 0.28 54.53 0.50L54.53 6.20L50.47 0.41C50.36 0.22 50.09 0.42 50.22 0.59ZM55.02 10.40L55.02 10.40L50.68 4.17C50.57 4.05 50.37 4.12 50.37 4.27L50.37 10.50C50.37 10.71 50.71 10.71 50.71 10.50L50.71 4.79L54.74 10.60C54.88 10.77 55.13 10.58 55.02 10.40ZM66.23 0.34L66.23 0.34L63.24 0.34C63.15 0.34 63.08 0.41 63.08 0.49L63.08 10.50C63.08 10.58 63.15 10.65 63.24 10.65C63.34 10.65 63.41 10.58 63.41 10.50L63.41 0.66L66.23 0.66C68.56 0.66 70.04 1.90 70.69 3.51C71.19 4.76 71.19 6.23 70.69 7.48C70.04 9.09 68.56 10.33 66.23 10.33L65.23 10.33C65.13 10.33 65.06 10.40 65.06 10.50C65.06 10.58 65.13 10.65 65.23 10.65L66.23 10.65C68.71 10.65 70.29 9.31 70.98 7.60C71.53 6.27 71.53 4.72 70.98 3.39C70.29 1.67 68.71 0.34 66.23 0.34ZM65.41 6.50L65.41 6.50L65.41 2.65L66.23 2.65C67.55 2.65 68.39 3.39 68.77 4.33C69.05 5.05 69.05 5.92 68.77 6.66C68.39 7.60 67.55 8.33 66.23 8.33L65.24 8.33C65.16 8.33 65.07 8.41 65.07 8.50C65.07 8.58 65.16 8.67 65.24 8.67L66.23 8.67C67.70 8.67 68.66 7.84 69.06 6.78C69.38 5.96 69.38 5.03 69.06 4.20C68.66 3.15 67.70 2.32 66.23 2.32L65.24 2.32C65.16 2.32 65.07 2.39 65.07 2.49L65.07 6.50C65.07 6.58 65.16 6.65 65.24 6.65C65.32 6.65 65.41 6.58 65.41 6.50ZM77.20 4.65L77.20 4.65C77.85 4.65 78.39 4.16 78.39 3.50C78.39 2.83 77.85 2.34 77.20 2.34L75.43 2.34C75.22 2.34 75.22 2.66 75.43 2.66L77.20 2.66C77.67 2.66 78.06 3.01 78.06 3.50C78.06 3.98 77.67 4.34 77.20 4.34L76.64 4.34C76.54 4.34 76.47 4.41 76.47 4.49C76.47 4.58 76.54 4.65 76.64 4.65ZM78.16 10.40L78.16 10.40L75.56 6.93C75.50 6.86 75.40 6.85 75.33 6.89C75.29 6.93 75.26 6.99 75.28 7.03L75.28 10.50C75.28 10.58 75.35 10.67 75.43 10.67C75.52 10.67 75.60 10.58 75.60 10.50L75.60 7.50L77.90 10.58C77.95 10.67 78.06 10.68 78.13 10.63C78.20 10.57 78.22 10.47 78.16 10.40ZM73.60 10.50L73.60 10.50L73.60 0.66L77.36 0.66C78.93 0.66 80.16 1.95 80.16 3.50C80.16 5.04 78.93 6.33 77.36 6.33C77.28 6.33 77.21 6.40 77.21 6.50C77.21 6.54 77.22 6.58 77.25 6.61L80.33 10.58C80.40 10.67 80.50 10.68 80.57 10.61C80.64 10.57 80.65 10.47 80.60 10.40L77.70 6.65C79.30 6.48 80.50 5.10 80.50 3.50C80.50 1.76 79.11 0.32 77.36 0.32L73.43 0.32C73.35 0.32 73.28 0.41 73.28 0.49L73.28 10.50C73.28 10.58 73.35 10.67 73.43 10.67C73.53 10.67 73.60 10.58 73.60 10.50ZM84.62 7.57L84.62 7.57L86.09 7.57C86.18 7.57 86.25 7.50 86.25 7.42C86.25 7.39 86.25 7.38 86.24 7.35L85.51 5.56C85.47 5.46 85.39 5.42 85.29 5.46C85.22 5.49 85.18 5.59 85.20 5.67L85.86 7.27L84.62 7.27C84.53 7.27 84.45 7.34 84.45 7.42C84.45 7.50 84.53 7.57 84.62 7.57ZM83.57 10.40L83.57 10.40L83.90 9.59L86.80 9.59L87.14 10.40C87.18 10.50 87.26 10.53 87.35 10.50C87.43 10.47 87.47 10.36 87.44 10.29L87.07 9.38C87.05 9.32 87.00 9.28 86.91 9.28L83.80 9.28C83.73 9.28 83.66 9.31 83.65 9.38L83.27 10.29C83.23 10.36 83.27 10.47 83.37 10.50C83.45 10.53 83.54 10.50 83.57 10.40ZM81.40 10.40L81.40 10.40L85.36 0.70L89.32 10.40C89.35 10.50 89.45 10.53 89.53 10.50C89.61 10.47 89.64 10.36 89.61 10.29L85.51 0.22C85.46 0.08 85.26 0.07 85.20 0.22L81.10 10.29C81.06 10.36 81.10 10.47 81.19 10.50C81.27 10.53 81.37 10.50 81.40 10.40ZM97.92 9.79L97.92 9.79C97.17 10.21 96.33 10.40 95.49 10.40C93.23 10.40 91.71 9.20 91.01 7.63C90.44 6.36 90.43 4.83 90.94 3.53C91.62 1.92 93.10 0.66 95.51 0.59C96.29 0.56 97.05 0.69 97.79 0.92C97.87 0.95 97.96 0.91 98.00 0.83C98.03 0.74 97.97 0.64 97.89 0.62C97.10 0.36 96.32 0.22 95.49 0.25C92.95 0.34 91.35 1.69 90.65 3.40C90.09 4.79 90.12 6.41 90.72 7.76C91.46 9.44 93.07 10.74 95.49 10.74C96.43 10.74 97.34 10.49 98.17 10.02C98.21 9.98 98.25 9.93 98.24 9.87L98.24 5.49C98.24 5.40 98.17 5.33 98.08 5.33C98.00 5.33 97.92 5.40 97.92 5.49ZM97.65 2.65L97.65 2.65C96.98 2.34 96.22 2.25 95.49 2.28C93.98 2.34 93.02 3.16 92.60 4.21C92.27 5.05 92.29 6.05 92.65 6.87C93.09 7.91 94.05 8.71 95.49 8.71C95.69 8.71 95.89 8.69 96.07 8.65C96.15 8.65 96.21 8.58 96.21 8.50L96.21 5.49C96.21 5.40 96.14 5.33 96.05 5.33C95.96 5.33 95.89 5.40 95.89 5.49L95.89 8.34C95.75 8.37 95.62 8.37 95.49 8.37C94.19 8.37 93.35 7.67 92.95 6.75C92.61 6.01 92.60 5.10 92.90 4.34C93.28 3.40 94.14 2.66 95.51 2.62C96.19 2.58 96.88 2.66 97.52 2.94C97.61 2.98 97.71 2.94 97.73 2.86C97.78 2.79 97.73 2.69 97.65 2.65ZM110.63 3.86L110.63 3.86C109.91 1.64 107.79 0.13 105.45 0.13C102.28 0.13 100.10 2.39 100.10 5.47C100.10 8.57 102.28 10.84 105.45 10.84C107.79 10.84 109.91 9.34 110.63 7.08C110.66 7 110.60 6.90 110.52 6.87C110.42 6.85 110.33 6.89 110.31 6.99C109.63 9.10 107.66 10.50 105.45 10.50C102.48 10.50 100.42 8.39 100.42 5.47C100.42 2.56 102.48 0.46 105.45 0.46C107.66 0.46 109.63 1.86 110.31 3.96C110.33 4.06 110.42 4.10 110.52 4.07C110.60 4.06 110.66 3.95 110.63 3.86ZM102.65 7.11L102.65 7.11C103.22 8.12 104.29 8.76 105.45 8.76C107.25 8.76 108.68 7.27 108.68 5.47C108.68 3.70 107.25 2.20 105.45 2.20C104.29 2.20 103.22 2.83 102.65 3.84C102.61 3.92 102.63 4.02 102.70 4.07C102.79 4.12 102.90 4.09 102.94 4.00C103.45 3.09 104.40 2.52 105.45 2.52C107.07 2.52 108.35 3.86 108.35 5.47C108.35 7.08 107.07 8.43 105.45 8.43C104.40 8.43 103.45 7.85 102.94 6.94C102.90 6.87 102.79 6.85 102.70 6.89C102.63 6.93 102.61 7.04 102.65 7.11ZM121.00 10.50L121.00 10.50L121.00 0.50C121.00 0.28 120.67 0.28 120.67 0.50L120.67 10.50C120.67 10.71 121.00 10.71 121.00 10.50ZM112.84 10.50L112.84 10.50L112.84 0.50C112.84 0.28 112.52 0.28 112.52 0.50L112.52 10.50C112.52 10.71 112.84 10.71 112.84 10.50ZM114.37 0.59L114.37 0.59L118.71 6.82C118.79 6.96 119.01 6.87 119.01 6.72L119.01 0.50C119.01 0.28 118.68 0.28 118.68 0.50L118.68 6.20L114.62 0.41C114.51 0.22 114.24 0.42 114.37 0.59ZM119.17 10.40L119.17 10.40L114.83 4.17C114.72 4.05 114.52 4.12 114.52 4.27L114.52 10.50C114.52 10.71 114.86 10.71 114.86 10.50L114.86 4.79L118.89 10.60C119.03 10.77 119.28 10.58 119.17 10.40Z"></path></g><!----><g data-v-423bf9ae="" id="feb6a266-67e9-4f38-9408-36636c52f3f8" transform="matrix(1.0018777635362413,0,0,1.0018777635362413,291.42589299868735,-0.17006998121438954)" stroke="none" fill="#B82B85"><path d="M70.673 14.445l-6.189-8.922C62.2 2.229 58.099.486 52.628.486c-8.424 0-19.464 4.169-29.535 11.15C5.816 23.618-3.074 39.705 2.859 48.261c.183.266 6.188 8.922 6.188 8.922a9.865 9.865 0 0 0 1.822 1.956c-.191.337-.333.704-.333 1.12v10.799c0 10.99 17.453 19.597 39.732 19.597C72.549 90.654 90 82.048 90 71.058V48.655c0-8.064-7.611-14.562-20.507-17.648 3.418-6.411 4.074-12.385 1.18-16.562zm-22.855 32.85c-.658.457-1.314.872-1.971 1.296a2.246 2.246 0 0 0-.993.657c-9.411 5.887-18.337 8.473-24.521 8.288-1.06-.135-5.166-.329-7.513-2.971l-1.02-1.471c.929.12 1.888.202 2.914.202 8.427 0 19.468-4.167 29.538-11.151 7.994-5.544 14.53-12.226 18.408-18.821 1.593-2.708 2.669-5.301 3.229-7.71l1.008 1.45c3.764 5.43-3.144 19.181-19.079 30.231zm-1.294 6.323c1.754 1.496 2.746 3.44 2.746 5.515 0 .015.009.026.009.044 0 .028.253 4.47.253 4.47-7.095-.064-14.22-1.03-20.103-2.648 5.351-1.337 11.209-3.794 17.095-7.381zm7.606 9.948l-.265-4.434c0-4.479 4.582-7.832 10.195-8.123 8.643-.449 10.246 8.34 10.263 8.449-5.245 2.178-12.112 3.731-20.193 4.108zm-2.55-11.192a12.963 12.963 0 0 0-1.105-1.332 74.997 74.997 0 0 0 9.09-7.403c.879.89 1.509 1.907 1.862 2.992-4.136.643-7.67 2.77-9.847 5.743zM25.711 15.413C35.04 8.942 45.102 5.081 52.627 5.081c2.717 0 6.33.532 8.083 3.062 1.906 2.752 1.176 7.437-2.009 12.854-3.548 6.031-9.611 12.203-17.068 17.375-9.329 6.468-19.391 10.33-26.918 10.33-2.717 0-6.329-.529-8.082-3.06-3.766-5.43 3.144-19.181 19.078-30.229zm24.557 70.649c-21.019 0-35.137-7.758-35.137-15.004v-9.684c1.31.401 2.75.648 4.299.744 7.233 3.737 19.197 6.131 30.837 6.131.538 0 1.92-.019 1.963-.024 14.572-.333 26.852-4.365 33.176-10.288v13.121c0 7.246-14.117 15.004-35.138 15.004zm35.138-37.408c0 2.986-2.432 6.055-6.729 8.637-.943-5.557-6.07-9.946-12.541-10.735-.443-2.31-1.604-4.445-3.381-6.207a53.145 53.145 0 0 0 4.171-5.203c11.417 2.405 18.48 7.538 18.48 13.508z"></path><path d="M15.255 46.032a2.3 2.3 0 0 0 2.669-1.853l3.255-17.97a2.299 2.299 0 0 0-1.853-2.669 2.295 2.295 0 0 0-2.667 1.853l-3.255 17.97a2.297 2.297 0 0 0 1.851 2.669zM27.808 41.471a2.3 2.3 0 0 0 2.669-1.853l1.685-9.312a2.296 2.296 0 1 0-4.52-.816l-1.685 9.312a2.295 2.295 0 0 0 1.851 2.669zM37.259 34.916a2.296 2.296 0 0 0 2.668-1.853l3.482-19.226a2.296 2.296 0 0 0-1.851-2.669c-1.242-.237-2.442.6-2.669 1.851l-3.481 19.228a2.297 2.297 0 0 0 1.851 2.669zM46.942 20.058a2.298 2.298 0 0 0 2.669-1.851l.798-4.422a2.296 2.296 0 0 0-1.851-2.669 2.296 2.296 0 0 0-2.67 1.851l-.797 4.422a2.296 2.296 0 0 0 1.851 2.669zM64.112 53.327h-.02a2.29 2.29 0 0 0-2.287 2.297 2.306 2.306 0 0 0 2.307 2.298 2.298 2.298 0 0 0 0-4.595zM86.863 6.126a2.293 2.293 0 0 0-3.247.042c-1.633 1.67-3.762 6.021-.151 10.533 1.987 2.484.353 4.821.02 5.247a2.294 2.294 0 0 0 .319 3.232c.428.351.942.521 1.454.521.664 0 1.324-.287 1.777-.842 1.549-1.888 3.545-6.622.018-11.031-1.829-2.283-.565-3.997-.13-4.475a2.294 2.294 0 0 0-.06-3.227zM78.01 1.141a2.292 2.292 0 0 0-3.248.042c-1.631 1.67-3.76 6.022-.149 10.534 1.985 2.484.352 4.821.017 5.247a2.296 2.296 0 0 0 1.775 3.753c.665 0 1.324-.287 1.778-.841 1.548-1.889 3.542-6.623.017-11.032-1.827-2.283-.564-3.996-.131-4.474a2.298 2.298 0 0 0-.059-3.229z"></path></g><!----></svg>