<svg data-v-423bf9ae="" xmlns="http://www.w3.org/2000/svg" viewBox="0 0 59.20702998511418 60" class="icon"><!----><!----><!----><!----><g data-v-423bf9ae="" id="5933723c-2c73-4187-bff5-8e0ea9369331" transform="matrix(0.6654171705673864,0,0,0.6654171705673864,-0.6805144179994684,-0.3233927954809346)" stroke="none" fill="white"><path d="M70.673 14.445l-6.189-8.922C62.2 2.229 58.099.486 52.628.486c-8.424 0-19.464 4.169-29.535 11.15C5.816 23.618-3.074 39.705 2.859 48.261c.183.266 6.188 8.922 6.188 8.922a9.865 9.865 0 0 0 1.822 1.956c-.191.337-.333.704-.333 1.12v10.799c0 10.99 17.453 19.597 39.732 19.597C72.549 90.654 90 82.048 90 71.058V48.655c0-8.064-7.611-14.562-20.507-17.648 3.418-6.411 4.074-12.385 1.18-16.562zm-22.855 32.85c-.658.457-1.314.872-1.971 1.296a2.246 2.246 0 0 0-.993.657c-9.411 5.887-18.337 8.473-24.521 8.288-1.06-.135-5.166-.329-7.513-2.971l-1.02-1.471c.929.12 1.888.202 2.914.202 8.427 0 19.468-4.167 29.538-11.151 7.994-5.544 14.53-12.226 18.408-18.821 1.593-2.708 2.669-5.301 3.229-7.71l1.008 1.45c3.764 5.43-3.144 19.181-19.079 30.231zm-1.294 6.323c1.754 1.496 2.746 3.44 2.746 5.515 0 .015.009.026.009.044 0 .028.253 4.47.253 4.47-7.095-.064-14.22-1.03-20.103-2.648 5.351-1.337 11.209-3.794 17.095-7.381zm7.606 9.948l-.265-4.434c0-4.479 4.582-7.832 10.195-8.123 8.643-.449 10.246 8.34 10.263 8.449-5.245 2.178-12.112 3.731-20.193 4.108zm-2.55-11.192a12.963 12.963 0 0 0-1.105-1.332 74.997 74.997 0 0 0 9.09-7.403c.879.89 1.509 1.907 1.862 2.992-4.136.643-7.67 2.77-9.847 5.743zM25.711 15.413C35.04 8.942 45.102 5.081 52.627 5.081c2.717 0 6.33.532 8.083 3.062 1.906 2.752 1.176 7.437-2.009 12.854-3.548 6.031-9.611 12.203-17.068 17.375-9.329 6.468-19.391 10.33-26.918 10.33-2.717 0-6.329-.529-8.082-3.06-3.766-5.43 3.144-19.181 19.078-30.229zm24.557 70.649c-21.019 0-35.137-7.758-35.137-15.004v-9.684c1.31.401 2.75.648 4.299.744 7.233 3.737 19.197 6.131 30.837 6.131.538 0 1.92-.019 1.963-.024 14.572-.333 26.852-4.365 33.176-10.288v13.121c0 7.246-14.117 15.004-35.138 15.004zm35.138-37.408c0 2.986-2.432 6.055-6.729 8.637-.943-5.557-6.07-9.946-12.541-10.735-.443-2.31-1.604-4.445-3.381-6.207a53.145 53.145 0 0 0 4.171-5.203c11.417 2.405 18.48 7.538 18.48 13.508z"></path><path d="M15.255 46.032a2.3 2.3 0 0 0 2.669-1.853l3.255-17.97a2.299 2.299 0 0 0-1.853-2.669 2.295 2.295 0 0 0-2.667 1.853l-3.255 17.97a2.297 2.297 0 0 0 1.851 2.669zM27.808 41.471a2.3 2.3 0 0 0 2.669-1.853l1.685-9.312a2.296 2.296 0 1 0-4.52-.816l-1.685 9.312a2.295 2.295 0 0 0 1.851 2.669zM37.259 34.916a2.296 2.296 0 0 0 2.668-1.853l3.482-19.226a2.296 2.296 0 0 0-1.851-2.669c-1.242-.237-2.442.6-2.669 1.851l-3.481 19.228a2.297 2.297 0 0 0 1.851 2.669zM46.942 20.058a2.298 2.298 0 0 0 2.669-1.851l.798-4.422a2.296 2.296 0 0 0-1.851-2.669 2.296 2.296 0 0 0-2.67 1.851l-.797 4.422a2.296 2.296 0 0 0 1.851 2.669zM64.112 53.327h-.02a2.29 2.29 0 0 0-2.287 2.297 2.306 2.306 0 0 0 2.307 2.298 2.298 2.298 0 0 0 0-4.595zM86.863 6.126a2.293 2.293 0 0 0-3.247.042c-1.633 1.67-3.762 6.021-.151 10.533 1.987 2.484.353 4.821.02 5.247a2.294 2.294 0 0 0 .319 3.232c.428.351.942.521 1.454.521.664 0 1.324-.287 1.777-.842 1.549-1.888 3.545-6.622.018-11.031-1.829-2.283-.565-3.997-.13-4.475a2.294 2.294 0 0 0-.06-3.227zM78.01 1.141a2.292 2.292 0 0 0-3.248.042c-1.631 1.67-3.76 6.022-.149 10.534 1.985 2.484.352 4.821.017 5.247a2.296 2.296 0 0 0 1.775 3.753c.665 0 1.324-.287 1.778-.841 1.548-1.889 3.542-6.623.017-11.032-1.827-2.283-.564-3.996-.131-4.474a2.298 2.298 0 0 0-.059-3.229z"></path></g><!----></svg>